<?xml version="1.0" standalone="no"?>
<!DOCTYPE svg PUBLIC "-//W3C//DTD SVG 20010904//EN"
 "http://www.w3.org/TR/2001/REC-SVG-20010904/DTD/svg10.dtd">
<svg version="1.0" xmlns="http://www.w3.org/2000/svg"
 width="134.000000pt" height="173.000000pt" viewBox="0 0 134.000000 173.000000"
 preserveAspectRatio="xMidYMid meet">

<g transform="translate(0.000000,173.000000) scale(0.100000,-0.100000)"
fill="#000000" stroke="none">
<path d="M312 873 l3 -288 293 -3 292 -2 0 81 c0 44 -3 79 -7 77 -107 -55 -97
-53 -293 -53 l-185 0 -3 148 -3 147 66 0 65 0 0 -91 0 -92 114 5 c103 4 118 7
154 30 83 55 104 164 48 248 -47 71 -62 75 -319 78 l-227 3 2 -288z"/>
<path d="M325 552 c-3 -3 -5 -61 -5 -129 l0 -123 30 0 c55 0 70 28 70 128 0
55 -5 94 -12 104 -13 15 -73 30 -83 20z m61 -77 c9 -61 -3 -135 -22 -135 -11
0 -14 18 -14 83 0 46 3 87 7 90 14 15 22 5 29 -38z"/>
<path d="M468 552 c-16 -3 -18 -18 -18 -128 l0 -124 40 0 c33 0 40 3 40 20 0
13 -7 20 -20 20 -16 0 -20 7 -20 35 0 24 5 35 15 35 8 0 15 9 15 20 0 11 -7
20 -15 20 -10 0 -15 11 -15 35 0 28 4 35 20 35 13 0 20 7 20 19 0 18 -21 23
-62 13z"/>
<path d="M560 431 c0 -110 2 -131 15 -131 12 0 15 13 15 56 0 67 15 63 25 -6
5 -40 11 -50 26 -50 16 0 17 5 11 33 -4 17 -6 52 -5 77 7 125 4 133 -54 145
l-33 7 0 -131z m55 49 c0 -18 -6 -35 -12 -37 -9 -3 -13 8 -13 37 0 29 4 40 13
38 6 -3 12 -20 12 -38z"/>
<path d="M687 553 c-4 -3 -7 -62 -7 -130 0 -103 2 -123 15 -123 12 0 15 15 15
78 1 89 14 81 25 -15 4 -35 11 -63 15 -63 5 0 12 26 16 58 11 95 23 105 23 20
1 -62 4 -78 16 -78 13 0 15 20 15 124 0 69 -4 127 -9 130 -23 14 -40 -8 -47
-60 -8 -64 -19 -63 -29 3 -8 53 -28 76 -48 56z"/>
<path d="M876 533 c-15 -75 -36 -226 -32 -231 11 -10 36 9 36 28 0 13 7 20 20
20 13 0 20 -7 20 -20 0 -19 25 -38 36 -28 4 4 -19 175 -32 236 -7 33 -41 29
-48 -5z m34 -108 c0 -19 -4 -35 -10 -35 -5 0 -10 16 -10 35 0 19 5 35 10 35 6
0 10 -16 10 -35z"/>
<path d="M996 544 c-12 -12 -16 -37 -16 -110 0 -103 9 -134 41 -134 11 0 28
-4 38 -10 17 -9 18 -1 20 110 1 108 0 121 -19 140 -24 24 -43 25 -64 4z m44
-113 c0 -84 -10 -121 -24 -85 -8 21 -8 159 1 167 18 18 23 0 23 -82z"/>
</g>
</svg>
