<svg version="1.1" id="Layer_1" xmlns="http://www.w3.org/2000/svg" xmlns:xlink="http://www.w3.org/1999/xlink" x="0px" y="0px"
	 width="100%" viewBox="0 0 512 512" enable-background="new 0 0 512 512" xml:space="preserve">
<path fill="#000000" opacity="1.000000" stroke="none" 
	d="
M1.000000,193.000000 
	C1.000000,128.666672 1.000000,64.833336 1.000000,1.000000 
	C171.666672,1.000000 342.333344,1.000000 513.000000,1.000000 
	C513.000000,171.666672 513.000000,342.333344 513.000000,513.000000 
	C342.333344,513.000000 171.666672,513.000000 1.000000,513.000000 
	C1.000000,406.500000 1.000000,300.000000 1.000000,193.000000 
M468.066589,273.036682 
	C460.709473,273.080109 453.352325,273.123535 445.091919,273.036194 
	C442.504333,273.036194 439.916748,273.036194 437.334534,273.036194 
	C437.334534,262.010376 437.334534,251.672440 437.334534,240.833862 
	C442.440887,240.833862 447.216827,240.833862 452.921844,240.973572 
	C458.238678,240.982849 463.603912,240.534027 468.862946,241.089966 
	C482.887024,242.572433 498.727570,228.802734 497.329803,212.879105 
	C496.381622,202.076767 488.210480,189.708298 477.176483,188.170242 
	C469.223114,187.061615 461.061462,187.446884 452.066559,187.038177 
	C447.160980,187.038177 442.255371,187.038177 437.334198,187.038177 
	C437.334198,176.009811 437.334198,165.672394 437.334198,154.834000 
	C442.440430,154.834000 447.216583,154.834000 452.921844,154.973755 
	C458.914612,154.982635 464.907471,154.973343 470.900116,155.005478 
	C476.978119,155.038086 482.183624,153.190338 487.245117,149.536163 
	C496.812439,142.629044 498.250793,132.890228 496.749146,122.715752 
	C495.314331,112.993980 489.145050,105.546982 479.452454,103.263039 
	C471.571442,101.405968 463.164612,101.780273 454.062592,101.037598 
	C448.947784,101.025902 443.795197,100.627296 438.729736,101.121529 
	C434.463501,101.537796 431.989227,99.851501 430.095978,96.431381 
	C427.039886,90.910477 423.068726,86.319290 416.706573,83.229698 
	C413.706879,81.777191 412.919312,79.455589 412.895935,76.114723 
	C412.807800,63.525902 412.964661,50.881184 411.813568,38.369289 
	C410.673065,25.972628 398.199921,16.319925 387.096527,17.035061 
	C371.089050,14.900424 357.695618,28.833345 358.870026,44.653133 
	C359.557648,53.915310 359.040558,63.270702 358.950531,72.583054 
	C358.935699,74.115028 358.327332,75.641258 357.064941,77.038658 
	C347.059448,76.991959 337.053925,76.945259 327.003021,75.974945 
	C326.999786,65.036568 327.355347,54.080627 326.821075,43.168251 
	C326.599670,38.646839 325.299225,33.744865 323.056274,29.838976 
	C316.901031,19.120106 306.942749,15.663301 294.222137,17.032917 
	C283.553741,18.479891 272.429962,31.161421 272.907196,43.438633 
	C273.337280,54.504139 272.997925,65.599556 272.997925,77.165543 
	C267.584595,77.165543 262.789246,77.165543 257.066956,77.031738 
	C251.816193,77.031738 246.565430,77.031738 240.999268,77.031738 
	C240.999268,65.957764 240.653976,55.508781 241.085236,45.091946 
	C241.645203,31.565662 233.132904,21.241507 220.067856,17.027622 
	C217.572418,17.018896 215.076736,16.982836 212.581604,17.006180 
	C201.845825,17.106617 194.494614,22.366266 189.286316,32.300102 
	C184.578674,46.877174 188.449127,62.029545 186.539352,77.165787 
	C177.201538,77.165787 168.098206,77.165787 158.120529,77.027397 
	C155.290421,77.510735 154.936584,75.955399 154.956879,73.594048 
	C155.048538,62.936691 154.783371,52.272755 155.050385,41.621307 
	C155.385651,28.248051 141.247208,14.939230 128.120331,17.026855 
	C120.273026,16.543364 113.781258,19.381565 108.439270,25.048689 
	C103.127380,30.683897 101.212593,37.662552 101.052567,45.103268 
	C100.823677,55.745396 100.855988,66.399063 101.084793,77.041191 
	C101.146507,79.911636 100.111992,81.600746 97.262177,83.226021 
	C93.736168,86.088989 88.996513,88.273926 86.938766,91.957169 
	C82.754738,99.446358 77.239738,102.488014 68.069832,101.024475 
	C60.712215,101.071938 53.354595,101.119400 45.152294,101.024597 
	C43.073544,101.349190 40.990768,101.650063 38.916679,102.002090 
	C21.136490,105.019775 14.013077,120.034561 17.779278,136.268143 
	C20.450356,147.781357 32.304878,156.991653 47.923885,154.982513 
	C56.281578,154.932892 64.639275,154.883286 73.871292,154.982132 
	C74.909790,155.604248 76.840927,156.209335 76.853180,156.851044 
	C77.044083,166.845276 76.986778,176.844269 76.986778,186.846695 
	C74.258430,186.971436 72.127441,187.068863 69.068993,187.025055 
	C60.045143,187.072052 51.021290,187.119064 41.198307,187.024796 
	C25.515629,189.107925 16.247892,201.269455 16.626497,216.684525 
	C16.876017,226.843842 29.836647,242.249603 43.924721,240.982651 
	C52.281956,240.932877 60.639187,240.883118 69.892204,240.982010 
	C72.155632,240.982010 74.419060,240.982010 76.706390,240.982010 
	C76.706390,251.963623 76.706390,262.362854 76.706390,273.166656 
	C73.943237,273.166656 71.469849,273.166656 68.069038,273.025238 
	C60.045151,273.072205 52.021263,273.119171 43.145844,273.023621 
	C27.388781,273.003113 16.903870,284.711823 17.007387,302.330780 
	C17.080490,314.772827 28.438465,326.756012 43.924721,326.982391 
	C52.948570,326.932739 61.972420,326.883087 71.878922,326.982361 
	C73.466942,326.982361 75.054962,326.982361 76.994858,326.982361 
	C76.994858,337.166077 77.073242,346.859070 76.864365,356.545929 
	C76.845093,357.439697 74.996315,358.294037 73.069611,359.024750 
	C64.378639,359.072021 55.687668,359.119324 46.095978,359.024536 
	C29.429384,357.024811 14.626887,370.062042 16.971209,389.339172 
	C18.619835,402.895721 29.247257,413.181091 47.924046,412.981750 
	C55.281788,412.932220 62.639526,412.882690 70.900513,412.981323 
	C71.898605,412.988647 72.916092,413.126343 73.891525,412.981293 
	C78.791237,412.252472 81.916016,413.914337 84.399994,418.549103 
	C87.773003,424.842712 93.338943,429.230713 100.145332,432.655945 
	C100.485596,433.105316 100.825851,433.554688 101.025841,434.931580 
	C101.072594,446.286255 101.119347,457.640961 101.018295,469.823151 
	C101.339989,471.401337 101.819511,472.965759 101.958694,474.559906 
	C103.205658,488.841461 117.432518,499.157623 130.838715,496.979828 
	C142.564758,497.679565 155.039581,485.499176 155.003738,473.010742 
	C154.969437,461.058167 154.996338,449.105347 154.996338,437.162109 
	C157.010590,437.029816 158.502563,436.931824 160.922256,436.981598 
	C169.517029,436.981598 178.111801,436.981598 187.004684,436.981598 
	C187.004684,448.575623 186.883408,459.543060 187.049850,470.506165 
	C187.150848,477.158325 188.984802,483.295044 194.224197,488.734161 
	C200.623856,497.185822 216.369125,499.419495 225.752411,494.994659 
	C236.425674,488.951843 241.602600,480.016571 241.083878,467.544983 
	C240.665268,457.480713 240.999069,447.385101 240.999069,436.833435 
	C248.077103,436.833435 254.535156,436.833435 261.909851,436.980011 
	C265.503204,436.980011 269.096588,436.980011 272.998596,436.980011 
	C272.998596,443.070312 272.876648,448.527374 273.027313,453.976959 
	C273.250122,462.036194 273.036285,470.179565 274.164795,478.122864 
	C275.489197,487.444855 288.430603,498.098419 296.903198,496.975891 
	C308.218445,497.893982 317.235168,494.160767 323.726105,483.654541 
	C324.818085,478.440643 326.597961,473.260498 326.855530,468.005707 
	C327.356018,457.794312 327.002014,447.541046 327.002014,436.831818 
	C336.433258,436.831818 345.213318,436.831818 354.866913,436.976685 
	C356.131897,437.042572 357.396851,437.108490 358.525696,437.167297 
	C358.744263,437.870178 358.923553,438.179077 358.924561,438.488556 
	C358.958588,449.110107 359.500641,459.762970 358.869843,470.345795 
	C357.967621,485.482513 372.304596,499.554138 387.837097,496.972992 
	C389.617462,496.773621 391.489075,496.861481 393.163879,496.329681 
	C407.260864,491.853424 412.024750,482.580780 412.877106,469.060150 
	C413.482941,459.450104 413.117249,449.768738 412.936096,440.123901 
	C412.859772,436.058777 412.847351,432.291077 417.757080,430.004028 
	C422.376587,425.284210 426.918304,420.483826 431.665588,415.896271 
	C432.997681,414.608978 434.889984,413.234711 436.602173,413.127472 
	C442.713989,412.744690 448.858856,412.889679 455.919647,412.974609 
	C460.416290,412.983276 464.936371,413.290344 469.404816,412.939606 
	C479.252319,412.166687 487.907227,409.027863 493.488464,400.026123 
	C496.898621,394.525970 497.165710,388.578674 497.022339,382.409821 
	C496.819397,373.678894 489.697205,363.985168 481.520416,360.964325 
	C472.136871,357.497650 462.514862,359.488495 452.066528,359.038910 
	C447.162048,359.038910 442.257568,359.038910 437.318085,359.038910 
	C437.318085,348.009827 437.318085,337.668030 437.318085,326.833221 
	C440.420227,326.833221 443.207764,326.833221 446.924316,326.970978 
	C454.614624,326.924988 462.304932,326.878967 470.828766,326.968842 
	C484.522919,326.377502 499.046631,316.767456 497.066040,294.682739 
	C496.277802,285.893433 483.869720,271.078003 468.066589,273.036682 
z"/>
<path fill="#0275CA" opacity="1.000000" stroke="none" 
	d="
M445.995300,326.833221 
	C443.207764,326.833221 440.420227,326.833221 437.318085,326.833221 
	C437.318085,337.668030 437.318085,348.009827 437.318085,359.038910 
	C442.257568,359.038910 447.162048,359.038910 452.531219,359.560608 
	C452.997253,374.321259 452.875580,388.562134 453.090759,402.797882 
	C453.141479,406.152405 454.327484,409.489746 454.991211,412.834991 
	C448.858856,412.889679 442.713989,412.744690 436.602173,413.127472 
	C434.889984,413.234711 432.997681,414.608978 431.665588,415.896271 
	C426.918304,420.483826 422.376587,425.284210 417.238953,429.664032 
	C416.480255,424.935699 416.382690,420.532532 415.929108,416.166321 
	C415.745941,414.403473 414.784210,412.721497 414.225586,410.659760 
	C418.397583,405.315735 420.059784,399.625977 420.053497,393.103912 
	C419.966949,303.146484 419.937592,213.188858 420.099792,123.231651 
	C420.113373,115.696350 418.574036,109.035210 414.509155,102.811211 
	C415.227539,100.771225 415.775696,98.933731 415.967316,97.059769 
	C416.415588,92.676224 416.692780,88.275185 417.039246,83.881226 
	C423.068726,86.319290 427.039886,90.910477 430.095978,96.431381 
	C431.989227,99.851501 434.463501,101.537796 438.729736,101.121529 
	C443.795197,100.627296 448.947784,101.025902 454.437683,101.446609 
	C453.875214,105.614082 452.217712,109.355598 452.128784,113.134033 
	C451.801788,127.027397 451.995148,140.932999 451.992737,154.834000 
	C447.216583,154.834000 442.440430,154.834000 437.334198,154.834000 
	C437.334198,165.672394 437.334198,176.009811 437.334198,187.038177 
	C442.255371,187.038177 447.160980,187.038177 452.496094,187.510925 
	C452.617126,190.949570 452.061066,193.913864 452.041931,196.881638 
	C451.947540,211.531876 451.995209,226.183029 451.992767,240.833862 
	C447.216827,240.833862 442.440887,240.833862 437.334534,240.833862 
	C437.334534,251.672440 437.334534,262.010376 437.334534,273.036194 
	C439.916748,273.036194 442.504333,273.036194 445.544647,273.559418 
	C445.996674,291.666168 445.995972,309.249695 445.995300,326.833221 
z"/>
<path fill="#05B4F6" opacity="1.000000" stroke="none" 
	d="
M69.996460,187.166290 
	C72.127441,187.068863 74.258430,186.971436 76.986778,186.846695 
	C76.986778,176.844269 77.044083,166.845276 76.853180,156.851044 
	C76.840927,156.209335 74.909790,155.604248 73.348045,154.540222 
	C72.216583,150.890121 71.147064,147.691010 71.083870,144.472122 
	C70.866188,133.384201 71.151970,122.286034 70.908066,111.199203 
	C70.834221,107.842575 69.664818,104.510048 68.997223,101.166481 
	C77.239738,102.488014 82.754738,99.446358 86.938766,91.957169 
	C88.996513,88.273926 93.736168,86.088989 97.897728,83.324615 
	C99.022125,85.590759 99.667091,87.737106 99.964821,89.930588 
	C100.465309,93.617821 100.745049,97.335014 100.969414,101.362991 
	C94.812035,108.894234 93.860840,117.291046 93.880844,126.403412 
	C94.073898,214.342392 94.099945,302.282288 93.843727,390.220917 
	C93.816803,399.459778 96.471306,407.050354 101.873322,414.299255 
	C101.421692,416.412781 101.171562,418.181641 101.008110,419.958466 
	C100.635559,424.008331 100.305489,428.062103 99.958160,432.114288 
	C93.338943,429.230713 87.773003,424.842712 84.399994,418.549103 
	C81.916016,413.914337 78.791237,412.252472 73.891525,412.981293 
	C72.916092,413.126343 71.898605,412.988647 70.549202,412.545166 
	C70.798401,409.586731 71.861229,407.074646 71.916908,404.540405 
	C72.123940,395.117615 71.766518,385.679596 72.086861,376.263153 
	C72.281250,370.549286 73.331367,364.864532 73.997040,359.166718 
	C74.996315,358.294037 76.845093,357.439697 76.864365,356.545929 
	C77.073242,346.859070 76.994858,337.166077 76.994858,326.982361 
	C75.054962,326.982361 73.466942,326.982361 71.351639,326.540222 
	C70.216270,322.883850 69.125923,319.676025 69.083076,316.454254 
	C68.891197,302.027222 68.997673,287.596222 68.996452,273.166656 
	C71.469849,273.166656 73.943237,273.166656 76.706390,273.166656 
	C76.706390,262.362854 76.706390,251.963623 76.706390,240.982010 
	C74.419060,240.982010 72.155632,240.982010 69.445114,240.449600 
	C68.998688,235.097824 68.910866,230.276505 69.017143,225.459473 
	C69.298775,212.694092 69.664307,199.930557 69.996460,187.166290 
z"/>
<path fill="#049DE7" opacity="1.000000" stroke="none" 
	d="
M225.047180,495.109589 
	C216.369125,499.419495 200.623856,497.185822 194.091248,487.991089 
	C193.638870,481.804047 193.083054,476.361786 193.043930,470.915802 
	C192.922409,454.000153 192.997055,437.083099 193.459503,420.093414 
	C203.947556,420.068939 213.971725,420.117676 223.996826,420.624603 
	C223.998550,443.321869 223.967072,465.561005 224.046066,487.799774 
	C224.054718,490.237518 224.698151,492.673035 225.047180,495.109589 
z"/>
<path fill="#038BDA" opacity="1.000000" stroke="none" 
	d="
M294.996582,17.166609 
	C306.942749,15.663301 316.901031,19.120106 323.056274,29.838976 
	C325.299225,33.744865 326.599670,38.646839 326.821075,43.168251 
	C327.355347,54.080627 326.999786,65.036568 326.871216,76.796242 
	C327.158569,83.021584 327.577759,88.425629 327.532867,93.897858 
	C316.711212,93.921684 306.353607,93.877335 295.996948,93.374786 
	C295.998535,70.456734 296.034088,47.996738 295.955627,25.537142 
	C295.945862,22.745880 295.331024,19.956734 294.996582,17.166609 
z"/>
<path fill="#049DE7" opacity="1.000000" stroke="none" 
	d="
M189.956573,31.893581 
	C194.494614,22.366266 201.845825,17.106617 212.581604,17.006180 
	C215.076736,16.982836 217.572418,17.018896 220.531189,17.551796 
	C220.996384,39.035725 220.943680,59.995739 221.045151,80.955009 
	C221.065933,85.249596 221.664062,89.541374 221.532074,93.902924 
	C211.043961,93.925735 201.019867,93.880081 191.088348,93.437225 
	C191.451523,91.411926 191.951660,89.784622 191.957275,88.155617 
	C192.015015,71.397537 192.060806,54.638538 191.902954,37.881744 
	C191.884094,35.879757 190.635284,33.889355 189.956573,31.893581 
z"/>
<path fill="#016DC5" opacity="1.000000" stroke="none" 
	d="
M452.457306,240.903717 
	C451.995209,226.183029 451.947540,211.531876 452.041931,196.881638 
	C452.061066,193.913864 452.617126,190.949570 452.959198,187.574753 
	C461.061462,187.446884 469.223114,187.061615 477.176483,188.170242 
	C488.210480,189.708298 496.381622,202.076767 497.329803,212.879105 
	C498.727570,228.802734 482.887024,242.572433 468.862946,241.089966 
	C463.603912,240.534027 458.238678,240.982849 452.457306,240.903717 
z"/>
<path fill="#016DC5" opacity="1.000000" stroke="none" 
	d="
M452.457275,154.903870 
	C451.995148,140.932999 451.801788,127.027397 452.128784,113.134033 
	C452.217712,109.355598 453.875214,105.614082 454.901855,101.510330 
	C463.164612,101.780273 471.571442,101.405968 479.452454,103.263039 
	C489.145050,105.546982 495.314331,112.993980 496.749146,122.715752 
	C498.250793,132.890228 496.812439,142.629044 487.245117,149.536163 
	C482.183624,153.190338 476.978119,155.038086 470.900116,155.005478 
	C464.907471,154.973343 458.914612,154.982635 452.457275,154.903870 
z"/>
<path fill="#027FD2" opacity="1.000000" stroke="none" 
	d="
M386.995148,496.833374 
	C372.304596,499.554138 357.967621,485.482513 358.869843,470.345795 
	C359.500641,459.762970 358.958588,449.110107 358.924561,438.488556 
	C358.923553,438.179077 358.744263,437.870178 358.525696,437.167297 
	C357.396851,437.108490 356.131897,437.042572 354.431427,436.447815 
	C353.995026,430.668732 353.994110,425.418488 354.457397,420.096069 
	C365.946381,420.071503 376.971130,420.119110 387.961609,420.575928 
	C387.618225,423.951813 387.051300,426.917633 387.041046,429.885345 
	C386.964081,452.201141 386.996765,474.517303 386.995148,496.833374 
z"/>
<path fill="#016DC5" opacity="1.000000" stroke="none" 
	d="
M455.455444,412.904785 
	C454.327484,409.489746 453.141479,406.152405 453.090759,402.797882 
	C452.875580,388.562134 452.997253,374.321259 452.994293,359.624390 
	C462.514862,359.488495 472.136871,357.497650 481.520416,360.964325 
	C489.697205,363.985168 496.819397,373.678894 497.022339,382.409821 
	C497.165710,388.578674 496.898621,394.525970 493.488464,400.026123 
	C487.907227,409.027863 479.252319,412.166687 469.404816,412.939606 
	C464.936371,413.290344 460.416290,412.983276 455.455444,412.904785 
z"/>
<path fill="#05AEF2" opacity="1.000000" stroke="none" 
	d="
M101.117653,101.039604 
	C100.745049,97.335014 100.465309,93.617821 99.964821,89.930588 
	C99.667091,87.737106 99.022125,85.590759 98.215988,83.187119 
	C100.111992,81.600746 101.146507,79.911636 101.084793,77.041191 
	C100.855988,66.399063 100.823677,55.745396 101.052567,45.103268 
	C101.212593,37.662552 103.127380,30.683897 108.439270,25.048689 
	C113.781258,19.381565 120.273026,16.543364 128.558990,17.554768 
	C128.998444,39.040352 128.944656,59.998287 129.045151,80.955482 
	C129.065750,85.249588 129.664276,89.540932 129.534134,93.903671 
	C118.960678,93.191360 109.317711,94.261223 101.117653,101.039604 
z"/>
<path fill="#05AEF2" opacity="1.000000" stroke="none" 
	d="
M100.051750,432.385132 
	C100.305489,428.062103 100.635559,424.008331 101.008110,419.958466 
	C101.171562,418.181641 101.421692,416.412781 102.235863,414.317596 
	C105.320930,415.350220 107.674370,417.469818 110.309265,417.911957 
	C117.138802,419.057892 124.092278,419.465179 130.905365,420.564667 
	C130.542999,423.430023 130.042465,425.897430 130.035767,428.366150 
	C129.973862,451.188324 129.997223,474.010681 129.995804,496.833008 
	C117.432518,499.157623 103.205658,488.841461 101.958694,474.559906 
	C101.819511,472.965759 101.339989,471.401337 101.426224,469.225403 
	C102.198532,467.917297 102.874031,467.209625 102.880348,466.496033 
	C102.966644,456.740570 103.017105,446.983551 102.897301,437.229126 
	C102.884018,436.147186 101.769768,435.078766 101.166115,434.004059 
	C100.825851,433.554688 100.485596,433.105316 100.051750,432.385132 
z"/>
<path fill="#027FD2" opacity="1.000000" stroke="none" 
	d="
M357.993256,77.170143 
	C358.327332,75.641258 358.935699,74.115028 358.950531,72.583054 
	C359.040558,63.270702 359.557648,53.915310 358.870026,44.653133 
	C357.695618,28.833345 371.089050,14.900424 387.511658,17.509840 
	C387.629852,19.610332 387.059387,21.239054 387.077240,22.861309 
	C387.337280,46.519138 387.676056,70.176102 387.531708,93.899406 
	C377.042328,93.920448 367.017303,93.875359 357.085022,93.434242 
	C357.449615,87.748856 357.721436,82.459503 357.993256,77.170143 
z"/>
<path fill="#027ACE" opacity="1.000000" stroke="none" 
	d="
M387.416138,496.903198 
	C386.996765,474.517303 386.964081,452.201141 387.041046,429.885345 
	C387.051300,426.917633 387.618225,423.951813 388.418274,420.506104 
	C398.704437,420.862427 407.356720,418.497650 414.176758,411.002747 
	C414.784210,412.721497 415.745941,414.403473 415.929108,416.166321 
	C416.382690,420.532532 416.480255,424.935699 416.885071,429.714966 
	C412.847351,432.291077 412.859772,436.058777 412.936096,440.123901 
	C413.117249,449.768738 413.482941,459.450104 412.877106,469.060150 
	C412.024750,482.580780 407.260864,491.853424 393.163879,496.329681 
	C391.489075,496.861481 389.617462,496.773621 387.416138,496.903198 
z"/>
<path fill="#027ACE" opacity="1.000000" stroke="none" 
	d="
M387.996033,93.833275 
	C387.676056,70.176102 387.337280,46.519138 387.077240,22.861309 
	C387.059387,21.239054 387.629852,19.610332 387.960938,17.575733 
	C398.199921,16.319925 410.673065,25.972628 411.813568,38.369289 
	C412.964661,50.881184 412.807800,63.525902 412.895935,76.114723 
	C412.919312,79.455589 413.706879,81.777191 416.872925,83.555466 
	C416.692780,88.275185 416.415588,92.676224 415.967316,97.059769 
	C415.775696,98.933731 415.227539,100.771225 414.350220,102.498886 
	C406.690948,95.125511 397.742676,93.270309 387.996033,93.833275 
z"/>
<path fill="#05A9EF" opacity="1.000000" stroke="none" 
	d="
M129.996429,93.833549 
	C129.664276,89.540932 129.065750,85.249588 129.045151,80.955482 
	C128.944656,59.998287 128.998444,39.040352 128.996719,17.624620 
	C141.247208,14.939230 155.385651,28.248051 155.050385,41.621307 
	C154.783371,52.272755 155.048538,62.936691 154.956879,73.594048 
	C154.936584,75.955399 155.290421,77.510735 158.649826,77.492744 
	C159.451202,83.249863 159.723267,88.541641 159.531433,93.902390 
	C149.377182,93.925430 139.686798,93.879486 129.996429,93.833549 
z"/>
<path fill="#05A9EF" opacity="1.000000" stroke="none" 
	d="
M130.417267,496.906433 
	C129.997223,474.010681 129.973862,451.188324 130.035767,428.366150 
	C130.042465,425.897430 130.542999,423.430023 131.369171,420.491028 
	C141.614304,420.069031 151.304718,420.117981 160.996231,420.621002 
	C160.663055,426.328003 160.328781,431.580902 159.994507,436.833832 
	C158.502563,436.931824 157.010590,437.029816 154.996338,437.162109 
	C154.996338,449.105347 154.969437,461.058167 155.003738,473.010742 
	C155.039581,485.499176 142.564758,497.679565 130.417267,496.906433 
z"/>
<path fill="#0390DD" opacity="1.000000" stroke="none" 
	d="
M294.609375,17.099762 
	C295.331024,19.956734 295.945862,22.745880 295.955627,25.537142 
	C296.034088,47.996738 295.998535,70.456734 295.532837,93.442490 
	C282.376495,93.923630 269.685150,93.878883 257.086609,93.437912 
	C257.450897,87.749634 257.722382,82.457588 257.993866,77.165543 
	C262.789246,77.165543 267.584595,77.165543 272.997925,77.165543 
	C272.997925,65.599556 273.337280,54.504139 272.907196,43.438633 
	C272.429962,31.161421 283.553741,18.479891 294.609375,17.099762 
z"/>
<path fill="#038BDA" opacity="1.000000" stroke="none" 
	d="
M323.092438,484.034027 
	C317.235168,494.160767 308.218445,497.893982 296.450531,496.446564 
	C295.997192,470.667145 295.996521,445.417084 296.460022,420.095459 
	C305.281738,420.071960 313.639374,420.119965 321.905914,420.565247 
	C321.548553,422.429352 321.055054,423.895508 321.050537,425.363159 
	C320.995422,443.334534 320.959595,461.306519 321.100433,479.276947 
	C321.112915,480.867767 322.398254,482.448578 323.092438,484.034027 
z"/>
<path fill="#0390DD" opacity="1.000000" stroke="none" 
	d="
M295.995880,420.166992 
	C295.996521,445.417084 295.997192,470.667145 295.997009,496.375183 
	C288.430603,498.098419 275.489197,487.444855 274.164795,478.122864 
	C273.036285,470.179565 273.250122,462.036194 273.027313,453.976959 
	C272.876648,448.527374 272.998596,443.070312 272.998596,436.980011 
	C269.096588,436.980011 265.503204,436.980011 261.363037,436.514099 
	C260.208740,430.754578 259.601196,425.460907 259.457703,420.093842 
	C271.946411,420.069275 283.971161,420.118134 295.995880,420.166992 
z"/>
<path fill="#0498E3" opacity="1.000000" stroke="none" 
	d="
M257.530396,77.098640 
	C257.722382,82.457588 257.450897,87.749634 256.622559,93.504868 
	C244.709167,93.923531 233.352615,93.878990 221.996078,93.834450 
	C221.664062,89.541374 221.065933,85.249596 221.045151,80.955009 
	C220.943680,59.995739 220.996384,39.035725 220.991470,17.617489 
	C233.132904,21.241507 241.645203,31.565662 241.085236,45.091946 
	C240.653976,55.508781 240.999268,65.957764 240.999268,77.031738 
	C246.565430,77.031738 251.816193,77.031738 257.530396,77.098640 
z"/>
<path fill="#0498E3" opacity="1.000000" stroke="none" 
	d="
M258.993683,420.167267 
	C259.601196,425.460907 260.208740,430.754578 260.904724,436.440826 
	C254.535156,436.833435 248.077103,436.833435 240.999069,436.833435 
	C240.999069,447.385101 240.665268,457.480713 241.083878,467.544983 
	C241.602600,480.016571 236.425674,488.951843 225.399796,495.052124 
	C224.698151,492.673035 224.054718,490.237518 224.046066,487.799774 
	C223.967072,465.561005 223.998550,443.321869 224.460800,420.552002 
	C236.280457,420.069916 247.637070,420.118591 258.993683,420.167267 
z"/>
<path fill="#06B9FA" opacity="1.000000" stroke="none" 
	d="
M69.532730,187.095673 
	C69.664307,199.930557 69.298775,212.694092 69.017143,225.459473 
	C68.910866,230.276505 68.998688,235.097824 68.997223,240.375275 
	C60.639187,240.883118 52.281956,240.932877 43.552879,240.511261 
	C43.453991,237.746460 43.946171,235.454636 43.962788,233.159378 
	C44.044533,221.869568 44.172737,210.574783 43.908245,199.290573 
	C43.813221,195.236374 42.665001,191.206848 41.997440,187.166061 
	C51.021290,187.119064 60.045143,187.072052 69.532730,187.095673 
z"/>
<path fill="#06B9FA" opacity="1.000000" stroke="none" 
	d="
M68.532745,273.095947 
	C68.997673,287.596222 68.891197,302.027222 69.083076,316.454254 
	C69.125923,319.676025 70.216270,322.883850 70.910309,326.465759 
	C61.972420,326.883087 52.948570,326.932739 43.552868,326.511017 
	C43.453972,323.738861 43.952881,321.439148 43.963345,319.137177 
	C44.032997,303.813751 43.998215,288.489838 43.997375,273.166107 
	C52.021263,273.119171 60.045151,273.072205 68.532745,273.095947 
z"/>
<path fill="#06B8F9" opacity="1.000000" stroke="none" 
	d="
M73.533325,359.095734 
	C73.331367,364.864532 72.281250,370.549286 72.086861,376.263153 
	C71.766518,385.679596 72.123940,395.117615 71.916908,404.540405 
	C71.861229,407.074646 70.798401,409.586731 70.097580,412.471069 
	C62.639526,412.882690 55.281788,412.932220 47.461128,412.449036 
	C46.997707,394.333099 46.997204,376.749847 46.996696,359.166595 
	C55.687668,359.119324 64.378639,359.072021 73.533325,359.095734 
z"/>
<path fill="#06B8F9" opacity="1.000000" stroke="none" 
	d="
M68.533524,101.095474 
	C69.664818,104.510048 70.834221,107.842575 70.908066,111.199203 
	C71.151970,122.286034 70.866188,133.384201 71.083870,144.472122 
	C71.147064,147.691010 72.216583,150.890121 72.910881,154.465973 
	C64.639275,154.883286 56.281578,154.932892 47.450249,154.492050 
	C46.651123,149.538315 46.087933,145.077332 46.044933,140.611343 
	C45.918346,127.464249 45.998035,114.315163 45.996979,101.166855 
	C53.354595,101.119400 60.712215,101.071938 68.533524,101.095474 
z"/>
<path fill="#06BDFD" opacity="1.000000" stroke="none" 
	d="
M46.546337,359.095581 
	C46.997204,376.749847 46.997707,394.333099 46.997581,412.374390 
	C29.247257,413.181091 18.619835,402.895721 16.971209,389.339172 
	C14.626887,370.062042 29.429384,357.024811 46.546337,359.095581 
z"/>
<path fill="#06BDFD" opacity="1.000000" stroke="none" 
	d="
M45.574638,101.095734 
	C45.998035,114.315163 45.918346,127.464249 46.044933,140.611343 
	C46.087933,145.077332 46.651123,149.538315 46.986633,154.417511 
	C32.304878,156.991653 20.450356,147.781357 17.779278,136.268143 
	C14.013077,120.034561 21.136490,105.019775 38.916679,102.002090 
	C40.990768,101.650063 43.073544,101.349190 45.574638,101.095734 
z"/>
<path fill="#0170C7" opacity="1.000000" stroke="none" 
	d="
M446.459808,326.902100 
	C445.995972,309.249695 445.996674,291.666168 445.996277,273.624817 
	C453.352325,273.123535 460.709473,273.080109 468.532043,273.559418 
	C468.998352,278.901489 468.910919,283.722809 469.017090,288.539825 
	C469.298431,301.305206 469.663483,314.068726 469.995239,326.833008 
	C462.304932,326.878967 454.614624,326.924988 446.459808,326.902100 
z"/>
<path fill="#016CC4" opacity="1.000000" stroke="none" 
	d="
M470.411987,326.900940 
	C469.663483,314.068726 469.298431,301.305206 469.017090,288.539825 
	C468.910919,283.722809 468.998352,278.901489 468.996368,273.624268 
	C483.869720,271.078003 496.277802,285.893433 497.066040,294.682739 
	C499.046631,316.767456 484.522919,326.377502 470.411987,326.900940 
z"/>
<path fill="#06BDFD" opacity="1.000000" stroke="none" 
	d="
M43.571609,273.094849 
	C43.998215,288.489838 44.032997,303.813751 43.963345,319.137177 
	C43.952881,321.439148 43.453972,323.738861 43.089252,326.436829 
	C28.438465,326.756012 17.080490,314.772827 17.007387,302.330780 
	C16.903870,284.711823 27.388781,273.003113 43.571609,273.094849 
z"/>
<path fill="#06BDFD" opacity="1.000000" stroke="none" 
	d="
M41.597874,187.095428 
	C42.665001,191.206848 43.813221,195.236374 43.908245,199.290573 
	C44.172737,210.574783 44.044533,221.869568 43.962788,233.159378 
	C43.946171,235.454636 43.453991,237.746460 43.089272,240.437073 
	C29.836647,242.249603 16.876017,226.843842 16.626497,216.684525 
	C16.247892,201.269455 25.515629,189.107925 41.597874,187.095428 
z"/>
<path fill="#0387D7" opacity="1.000000" stroke="none" 
	d="
M323.409271,483.844299 
	C322.398254,482.448578 321.112915,480.867767 321.100433,479.276947 
	C320.959595,461.306519 320.995422,443.334534 321.050537,425.363159 
	C321.055054,423.895508 321.548553,422.429352 322.370056,420.494476 
	C333.281250,420.073730 343.637238,420.121002 353.993195,420.168274 
	C353.994110,425.418488 353.995026,430.668732 353.994659,436.375366 
	C345.213318,436.831818 336.433258,436.831818 327.002014,436.831818 
	C327.002014,447.541046 327.356018,457.794312 326.855530,468.005707 
	C326.597961,473.260498 324.818085,478.440643 323.409271,483.844299 
z"/>
<path fill="#04A3EB" opacity="1.000000" stroke="none" 
	d="
M160.458374,436.907715 
	C160.328781,431.580902 160.663055,426.328003 161.460068,420.547058 
	C172.280411,420.068237 182.638000,420.117432 192.995590,420.166595 
	C192.997055,437.083099 192.922409,454.000153 193.043930,470.915802 
	C193.083054,476.361786 193.638870,481.804047 193.958771,487.681763 
	C188.984802,483.295044 187.150848,477.158325 187.049850,470.506165 
	C186.883408,459.543060 187.004684,448.575623 187.004684,436.981598 
	C178.111801,436.981598 169.517029,436.981598 160.458374,436.907715 
z"/>
<path fill="#04A3EB" opacity="1.000000" stroke="none" 
	d="
M159.995331,93.833420 
	C159.723267,88.541641 159.451202,83.249863 159.086990,77.561935 
	C168.098206,77.165787 177.201538,77.165787 186.539352,77.165787 
	C188.449127,62.029545 184.578674,46.877174 189.621445,32.096840 
	C190.635284,33.889355 191.884094,35.879757 191.902954,37.881744 
	C192.060806,54.638538 192.015015,71.397537 191.957275,88.155617 
	C191.951660,89.784622 191.451523,91.411926 190.624420,93.506012 
	C180.043701,93.925804 170.019516,93.879608 159.995331,93.833420 
z"/>
<path fill="#0387D7" opacity="1.000000" stroke="none" 
	d="
M357.529114,77.104401 
	C357.721436,82.459503 357.449615,87.748856 356.620972,93.499863 
	C346.708405,93.917564 337.352692,93.873619 327.996948,93.829674 
	C327.577759,88.425629 327.158569,83.021584 326.893921,77.258049 
	C337.053925,76.945259 347.059448,76.991959 357.529114,77.104401 
z"/>
<path fill="#05B4F6" opacity="1.000000" stroke="none" 
	d="
M101.095978,434.467834 
	C101.769768,435.078766 102.884018,436.147186 102.897301,437.229126 
	C103.017105,446.983551 102.966644,456.740570 102.880348,466.496033 
	C102.874031,467.209625 102.198532,467.917297 101.500122,468.811646 
	C101.119347,457.640961 101.072594,446.286255 101.095978,434.467834 
z"/>
<path fill="#000000" opacity="1.000000" stroke="none" 
	d="
M327.532867,93.897858 
	C337.352692,93.873619 346.708405,93.917564 356.528198,93.895889 
	C367.017303,93.875359 377.042328,93.920448 387.531677,93.899406 
	C397.742676,93.270309 406.690948,95.125511 414.017944,102.684814 
	C418.574036,109.035210 420.113373,115.696350 420.099792,123.231651 
	C419.937592,213.188858 419.966949,303.146484 420.053497,393.103912 
	C420.059784,399.625977 418.397583,405.315735 414.225586,410.659760 
	C407.356720,418.497650 398.704437,420.862427 388.452576,420.096863 
	C376.971130,420.119110 365.946381,420.071503 354.457397,420.096069 
	C343.637238,420.121002 333.281250,420.073730 322.461121,420.097229 
	C313.639374,420.119965 305.281738,420.071960 296.460022,420.095459 
	C283.971161,420.118134 271.946411,420.069275 259.457703,420.093842 
	C247.637070,420.118591 236.280457,420.069916 224.459869,420.093811 
	C213.971725,420.117676 203.947556,420.068939 193.459503,420.093414 
	C182.638000,420.117432 172.280411,420.068237 161.458984,420.093018 
	C151.304718,420.117981 141.614304,420.069031 131.460083,420.093689 
	C124.092278,419.465179 117.138802,419.057892 110.309265,417.911957 
	C107.674370,417.469818 105.320930,415.350220 102.476715,413.976562 
	C96.471306,407.050354 93.816803,399.459778 93.843727,390.220917 
	C94.099945,302.282288 94.073898,214.342392 93.880844,126.403412 
	C93.860840,117.291046 94.812035,108.894234 100.969414,101.362991 
	C109.317711,94.261223 118.960678,93.191360 129.534134,93.903671 
	C139.686798,93.879486 149.377182,93.925430 159.531433,93.902390 
	C170.019516,93.879608 180.043701,93.925804 190.531830,93.903214 
	C201.019867,93.880081 211.043961,93.925735 221.532074,93.902924 
	C233.352615,93.878990 244.709167,93.923531 256.529755,93.901100 
	C269.685150,93.878883 282.376495,93.923630 295.531921,93.900681 
	C306.353607,93.877335 316.711212,93.921684 327.532867,93.897858 
M225.923080,402.978455 
	C234.897812,402.983704 243.873245,403.048950 252.846634,402.941559 
	C254.566086,402.920990 256.277405,402.220703 258.748566,401.978180 
	C269.852386,399.052490 277.508484,389.144043 278.152435,377.735199 
	C278.301147,375.100433 279.648529,371.609863 281.641174,370.173584 
	C287.942200,365.631866 294.477417,360.033936 303.398804,366.792328 
	C304.057465,366.869415 304.728790,366.889282 305.372894,367.032043 
	C318.942413,370.039551 328.031372,366.204895 335.257996,354.366089 
	C339.502838,347.412079 343.749969,340.458862 347.918304,333.458984 
	C355.143005,321.326508 353.479492,306.583984 342.561523,298.470398 
	C336.190216,293.735657 333.911316,288.581818 335.044708,281.332397 
	C335.506897,278.376312 335.649292,274.816498 337.379303,272.723267 
	C341.450012,267.797913 346.388580,263.589752 351.422791,259.748016 
	C360.807800,262.554749 369.434967,261.112091 375.243896,252.988800 
	C380.313507,245.899323 384.602051,238.098648 388.188446,230.140259 
	C392.558716,220.442429 387.010803,210.286072 381.721008,206.375427 
	C375.014618,201.417542 374.761475,195.154312 381.410370,190.147903 
	C390.754761,183.111877 391.489197,171.305710 386.586548,162.278580 
	C383.862457,157.262772 380.657379,152.509857 377.878174,147.521973 
	C371.745605,136.515671 358.453369,132.359406 347.236877,139.031998 
	C345.285980,138.274811 343.068970,137.873032 341.455627,136.665024 
	C339.681213,135.336395 337.291870,133.327393 337.196533,131.508606 
	C336.686523,121.780945 330.340881,113.698997 320.774994,111.477852 
	C315.444275,110.240082 309.603821,111.197426 303.080048,111.034134 
	C300.427429,111.024818 297.772034,110.932579 295.122681,111.021202 
	C285.874115,111.330559 276.916107,119.358009 276.004395,128.085907 
	C275.272675,135.090500 271.201935,138.766251 263.659271,138.240036 
	C251.031876,132.983185 240.916840,136.418549 234.353943,148.207733 
	C232.858780,150.893570 231.868912,154.047058 229.814880,156.187164 
	C227.371185,158.733276 227.888062,163.822815 222.171478,164.032776 
	C209.695969,164.673294 199.731964,174.980179 198.863098,187.399887 
	C198.640182,190.586472 197.653534,194.906448 195.427475,196.544144 
	C188.671371,201.514572 181.295395,206.488007 172.479355,200.230728 
	C172.361008,200.146729 172.155365,200.185715 171.230927,199.773911 
	C168.482330,199.518463 165.738739,199.150131 162.984238,199.028442 
	C154.212097,198.640884 147.504684,202.660095 142.922897,209.732285 
	C137.996979,217.335663 134.024231,225.552505 129.182373,233.215286 
	C120.349068,247.194962 123.839592,261.339844 136.677475,270.961914 
	C144.539261,276.854340 144.508987,290.881134 136.169968,296.366394 
	C124.031708,304.350769 121.020844,320.347900 128.349960,332.927032 
	C131.694031,338.666504 135.160019,344.334747 138.528778,350.059998 
	C143.119171,357.861420 147.798599,365.539246 158.076965,367.536194 
	C158.377426,367.632172 158.677887,367.728149 159.485458,367.947693 
	C159.655182,367.909485 159.824921,367.871277 160.892868,367.980682 
	C166.354385,368.477875 171.636459,367.801392 176.363159,364.898712 
	C180.694901,362.238647 184.533203,362.992554 188.350449,365.842377 
	C189.088470,366.393311 190.041550,366.656189 191.222397,367.682678 
	C197.061111,369.416382 198.717896,374.054504 198.956558,379.367828 
	C199.518143,391.870239 209.876434,403.227417 225.923080,402.978455 
z"/>
<path fill="#0387D7" opacity="1.000000" stroke="none" 
	d="
M350.975983,259.091431 
	C346.388580,263.589752 341.450012,267.797913 337.379303,272.723267 
	C335.649292,274.816498 335.506897,278.376312 335.044708,281.332397 
	C333.911316,288.581818 336.190216,293.735657 342.561523,298.470398 
	C353.479492,306.583984 355.143005,321.326508 347.918304,333.458984 
	C343.749969,340.458862 339.502838,347.412079 335.257996,354.366089 
	C328.031372,366.204895 318.942413,370.039551 305.372894,367.032043 
	C304.728790,366.889282 304.057465,366.869415 303.188110,365.982666 
	C303.648071,359.508362 304.318695,353.843750 305.348572,348.227112 
	C313.118103,352.022064 317.214417,351.409515 320.767242,345.472168 
	C325.283508,337.924774 329.575623,330.237427 333.765411,322.502655 
	C336.427612,317.588043 335.172333,314.114807 330.563019,310.778168 
	C327.823944,308.795380 325.061676,306.593628 323.020050,303.943237 
	C315.436188,294.098053 317.507965,282.707764 318.883240,271.715607 
	C319.816467,264.256805 325.327667,259.471191 331.183044,255.251862 
	C334.977203,252.517807 336.106476,248.125198 334.150330,244.693909 
	C330.438293,238.182480 326.719177,231.675003 323.028931,225.151230 
	C317.622375,215.593384 315.326324,214.428589 307.034180,216.680298 
	C307.666870,210.725540 309.067535,205.157135 306.212402,199.531570 
	C312.208954,199.420181 317.958282,199.658386 323.769806,199.899170 
	C324.961182,190.302277 317.090607,181.846451 306.997681,180.412140 
	C307.332367,174.716385 307.663025,169.441605 308.410889,164.094330 
	C331.233887,165.217438 347.421509,188.925735 338.277344,211.107208 
	C337.031616,214.129074 337.455444,216.015274 339.012146,218.668549 
	C343.272095,225.929031 347.066589,233.462616 351.035522,241.363037 
	C351.009125,247.589142 350.992554,253.340286 350.975983,259.091431 
z"/>
<path fill="#05A9EF" opacity="1.000000" stroke="none" 
	d="
M159.994659,367.833038 
	C159.824921,367.871277 159.655182,367.909485 159.073013,367.728638 
	C158.434418,367.310211 158.180649,367.156403 157.899261,367.048157 
	C147.798599,365.539246 143.119171,357.861420 138.528778,350.059998 
	C135.160019,344.334747 131.694031,338.666504 128.349960,332.927032 
	C121.020844,320.347900 124.031708,304.350769 136.169968,296.366394 
	C144.508987,290.881134 144.539261,276.854340 136.677475,270.961914 
	C123.839592,261.339844 120.349068,247.194962 129.182373,233.215286 
	C134.024231,225.552505 137.996979,217.335663 142.922897,209.732285 
	C147.504684,202.660095 154.212097,198.640884 162.984238,199.028442 
	C165.738739,199.150131 168.482330,199.518463 171.521545,200.367706 
	C171.529297,206.681000 171.246460,212.400482 170.578766,218.057571 
	C163.577545,214.795517 159.402054,215.272797 156.406647,220.257172 
	C151.735992,228.029205 147.320312,235.963257 143.050751,243.964294 
	C140.390732,248.949066 141.721802,252.629944 146.386215,256.138397 
	C148.806656,257.958954 151.070068,260.085480 153.045410,262.382477 
	C158.939972,269.236847 159.139908,277.537720 159.076492,286.047180 
	C158.999557,296.371765 155.409744,304.491577 146.543167,310.193481 
	C141.174667,313.645905 140.140045,317.788391 143.203766,323.433594 
	C146.453171,329.420868 149.951233,335.286591 153.614853,341.030518 
	C155.819870,344.487579 158.548065,347.610962 161.032227,351.357117 
	C160.680435,357.164337 160.337555,362.498688 159.994659,367.833038 
z"/>
<path fill="#0280D2" opacity="1.000000" stroke="none" 
	d="
M351.199402,259.419739 
	C350.992554,253.340286 351.009125,247.589142 351.281403,241.419388 
	C351.697784,241.050339 351.858490,241.099899 352.185669,241.309189 
	C352.595032,241.659958 352.855225,241.823318 353.499390,241.986938 
	C356.722473,243.253967 359.662872,245.707260 362.174805,241.505234 
	C365.897034,235.278610 369.603424,229.042496 373.325378,222.795563 
	C371.964844,221.460587 371.106842,220.419067 370.061707,219.623322 
	C356.102509,208.995010 355.940674,188.127930 369.724976,177.652115 
	C372.104126,175.843979 373.336670,173.832855 371.364868,170.667938 
	C368.276306,165.710510 365.691040,160.442261 362.705902,155.416519 
	C361.262848,152.987000 359.304321,152.488220 356.379974,153.753098 
	C353.491608,155.002411 350.141571,155.184448 346.995605,155.381729 
	C347.329498,149.674271 347.661835,144.419754 347.994171,139.165253 
	C358.453369,132.359406 371.745605,136.515671 377.878174,147.521973 
	C380.657379,152.509857 383.862457,157.262772 386.586548,162.278580 
	C391.489197,171.305710 390.754761,183.111877 381.410370,190.147903 
	C374.761475,195.154312 375.014618,201.417542 381.721008,206.375427 
	C387.010803,210.286072 392.558716,220.442429 388.188446,230.140259 
	C384.602051,238.098648 380.313507,245.899323 375.243896,252.988800 
	C369.434967,261.112091 360.807800,262.554749 351.199402,259.419739 
z"/>
<path fill="#0497E2" opacity="1.000000" stroke="none" 
	d="
M222.993698,164.166885 
	C227.888062,163.822815 227.371185,158.733276 229.814880,156.187164 
	C231.868912,154.047058 232.858780,150.893570 234.353943,148.207733 
	C240.916840,136.418549 251.031876,132.983185 263.842102,139.037506 
	C264.014862,145.167709 264.004791,150.500443 263.600159,155.900299 
	C262.092346,155.771133 260.826508,155.851776 259.889557,155.335541 
	C250.907883,150.386963 251.689255,153.885651 247.687759,159.772903 
	C246.854111,160.999435 246.275223,162.399139 246.254776,162.437912 
	C252.945724,164.292694 259.534576,166.119171 265.881409,168.288116 
	C265.425964,176.914429 265.330750,185.204269 264.909546,193.477524 
	C264.813568,195.362625 263.590515,197.190338 262.552490,198.827362 
	C261.805359,195.552505 261.441498,192.487061 260.967651,189.438705 
	C260.106995,183.901535 256.637024,181.036896 250.828156,180.999130 
	C241.550003,180.938812 232.271774,180.888077 222.995026,180.376465 
	C222.995560,174.668716 222.994629,169.417801 222.993698,164.166885 
z"/>
<path fill="#049FE8" opacity="1.000000" stroke="none" 
	d="
M222.582581,164.099823 
	C222.994629,169.417801 222.995560,174.668716 222.632050,180.450638 
	C218.489410,182.931198 216.201233,185.471405 215.778320,190.235168 
	C215.376678,194.759369 213.822433,199.404388 211.795975,203.513443 
	C207.926102,211.360443 199.804916,214.243423 192.664429,217.976379 
	C185.627686,221.655106 178.221588,221.650620 170.963623,218.119965 
	C171.246460,212.400482 171.529297,206.681000 171.901306,200.564407 
	C172.155365,200.185715 172.361008,200.146729 172.479355,200.230728 
	C181.295395,206.488007 188.671371,201.514572 195.427475,196.544144 
	C197.653534,194.906448 198.640182,190.586472 198.863098,187.399887 
	C199.731964,174.980179 209.695969,164.673294 222.582581,164.099823 
z"/>
<path fill="#0390DD" opacity="1.000000" stroke="none" 
	d="
M304.989319,348.179138 
	C304.318695,353.843750 303.648071,359.508362 302.968506,365.646362 
	C294.477417,360.033936 287.942200,365.631866 281.641174,370.173584 
	C279.648529,371.609863 278.301147,375.100433 278.152435,377.735199 
	C277.508484,389.144043 269.852386,399.052490 258.281189,401.509155 
	C257.529999,395.653076 257.246155,390.266022 257.106018,384.560059 
	C258.496185,382.032959 260.741791,379.858887 260.818787,377.610596 
	C261.183289,366.966675 265.422760,359.083710 274.793732,353.615173 
	C284.311493,348.060944 293.690308,343.190338 304.989319,348.179138 
z"/>
<path fill="#0387D7" opacity="1.000000" stroke="none" 
	d="
M347.615540,139.098633 
	C347.661835,144.419754 347.329498,149.674271 346.574585,155.446991 
	C336.352325,156.202545 319.784241,146.324280 319.940948,133.214828 
	C319.985840,129.457214 317.944763,127.661407 313.926758,127.940788 
	C310.302216,128.192795 306.639160,127.891586 302.994873,127.380180 
	C303.328766,121.672516 303.660919,116.419022 303.993103,111.165527 
	C309.603821,111.197426 315.444275,110.240082 320.774994,111.477852 
	C330.340881,113.698997 336.686523,121.780945 337.196533,131.508606 
	C337.291870,133.327393 339.681213,135.336395 341.455627,136.665024 
	C343.068970,137.873032 345.285980,138.274811 347.615540,139.098633 
z"/>
<path fill="#0390DD" opacity="1.000000" stroke="none" 
	d="
M303.536560,111.099831 
	C303.660919,116.419022 303.328766,121.672516 302.560425,127.445671 
	C294.267059,128.034302 294.267090,128.034317 292.328583,135.273361 
	C288.655945,148.987946 278.155701,156.607193 263.994720,155.833176 
	C264.004791,150.500443 264.014862,145.167709 264.034332,139.360489 
	C271.201935,138.766251 275.272675,135.090500 276.004395,128.085907 
	C276.916107,119.358009 285.874115,111.330559 295.122681,111.021202 
	C297.772034,110.932579 300.427429,111.024818 303.536560,111.099831 
z"/>
<path fill="#049DE7" opacity="1.000000" stroke="none" 
	d="
M224.995056,402.833221 
	C209.876434,403.227417 199.518143,391.870239 198.956558,379.367828 
	C198.717896,374.054504 197.061111,369.416382 191.332275,367.088593 
	C191.959518,360.718445 192.476868,354.942413 193.345123,349.198639 
	C196.331070,350.793182 198.905624,352.470367 201.612793,353.895691 
	C209.117172,357.846710 213.869278,363.617523 215.082733,372.285858 
	C215.900192,378.125336 216.273651,384.605621 223.996704,386.622314 
	C224.330093,392.329407 224.662567,397.581329 224.995056,402.833221 
z"/>
<path fill="#04A3EB" opacity="1.000000" stroke="none" 
	d="
M192.994232,349.166351 
	C192.476868,354.942413 191.959518,360.718445 191.168793,366.773224 
	C190.041550,366.656189 189.088470,366.393311 188.350449,365.842377 
	C184.533203,362.992554 180.694901,362.238647 176.363159,364.898712 
	C171.636459,367.801392 166.354385,368.477875 160.443756,367.906860 
	C160.337555,362.498688 160.680435,357.164337 161.450134,351.404114 
	C164.371201,350.404205 167.005249,350.165588 169.334213,349.194977 
	C177.265869,345.889374 185.097153,344.217346 192.994232,349.166351 
z"/>
<path fill="#0498E3" opacity="1.000000" stroke="none" 
	d="
M225.459061,402.905823 
	C224.662567,397.581329 224.330093,392.329407 224.460693,386.549713 
	C235.603271,385.640930 246.282776,385.259918 256.962280,384.878937 
	C257.246155,390.266022 257.529999,395.653076 257.903137,401.437073 
	C256.277405,402.220703 254.566086,402.920990 252.846634,402.941559 
	C243.873245,403.048950 234.897812,402.983704 225.459061,402.905823 
z"/>
<path fill="#04A3EB" opacity="1.000000" stroke="none" 
	d="
M157.988113,367.292175 
	C158.180649,367.156403 158.434418,367.310211 158.819458,367.666870 
	C158.677887,367.728149 158.377426,367.632172 157.988113,367.292175 
z"/>
<path fill="#000000" opacity="1.000000" stroke="none" 
	d="
M257.106018,384.560059 
	C246.282776,385.259918 235.603271,385.640930 224.459778,386.094513 
	C216.273651,384.605621 215.900192,378.125336 215.082733,372.285858 
	C213.869278,363.617523 209.117172,357.846710 201.612793,353.895691 
	C198.905624,352.470367 196.331070,350.793182 193.345123,349.198639 
	C185.097153,344.217346 177.265869,345.889374 169.334213,349.194977 
	C167.005249,350.165588 164.371201,350.404205 161.459061,350.931274 
	C158.548065,347.610962 155.819870,344.487579 153.614853,341.030518 
	C149.951233,335.286591 146.453171,329.420868 143.203766,323.433594 
	C140.140045,317.788391 141.174667,313.645905 146.543167,310.193481 
	C155.409744,304.491577 158.999557,296.371765 159.076492,286.047180 
	C159.139908,277.537720 158.939972,269.236847 153.045410,262.382477 
	C151.070068,260.085480 148.806656,257.958954 146.386215,256.138397 
	C141.721802,252.629944 140.390732,248.949066 143.050751,243.964294 
	C147.320312,235.963257 151.735992,228.029205 156.406647,220.257172 
	C159.402054,215.272797 163.577545,214.795517 170.578766,218.057571 
	C178.221588,221.650620 185.627686,221.655106 192.664429,217.976379 
	C199.804916,214.243423 207.926102,211.360443 211.795975,203.513443 
	C213.822433,199.404388 215.376678,194.759369 215.778320,190.235168 
	C216.201233,185.471405 218.489410,182.931198 222.630585,180.907471 
	C232.271774,180.888077 241.550003,180.938812 250.828156,180.999130 
	C256.637024,181.036896 260.106995,183.901535 260.967651,189.438705 
	C261.441498,192.487061 261.805359,195.552505 262.597656,199.200653 
	C264.925934,207.287445 271.105286,210.835861 277.026154,214.432266 
	C286.518097,220.197784 296.384491,223.549988 307.040527,217.116135 
	C315.326324,214.428589 317.622375,215.593384 323.028931,225.151230 
	C326.719177,231.675003 330.438293,238.182480 334.150330,244.693909 
	C336.106476,248.125198 334.977203,252.517807 331.183044,255.251862 
	C325.327667,259.471191 319.816467,264.256805 318.883240,271.715607 
	C317.507965,282.707764 315.436188,294.098053 323.020050,303.943237 
	C325.061676,306.593628 327.823944,308.795380 330.563019,310.778168 
	C335.172333,314.114807 336.427612,317.588043 333.765411,322.502655 
	C329.575623,330.237427 325.283508,337.924774 320.767242,345.472168 
	C317.214417,351.409515 313.118103,352.022064 305.348572,348.227112 
	C293.690308,343.190338 284.311493,348.060944 274.793732,353.615173 
	C265.422760,359.083710 261.183289,366.966675 260.818787,377.610596 
	C260.741791,379.858887 258.496185,382.032959 257.106018,384.560059 
M241.833755,344.974121 
	C253.277573,343.585632 264.178040,340.663605 274.170074,333.262756 
	C275.368225,332.421112 276.674164,331.697845 277.748505,330.720123 
	C296.221039,313.909363 303.674744,293.330994 297.898468,268.789490 
	C293.842529,251.557251 283.796722,238.482788 267.755981,229.322845 
	C256.839478,223.680145 245.308792,221.022385 232.170258,222.036026 
	C221.108749,223.470428 210.982727,227.284119 201.330734,234.179352 
	C187.340714,244.511581 179.244827,258.697754 177.205582,275.574921 
	C174.278015,299.804016 184.691360,323.166168 207.295410,336.753815 
	C217.896927,342.083435 228.915314,345.673553 241.833755,344.974121 
z"/>
<path fill="#000000" opacity="1.000000" stroke="none" 
	d="
M263.600159,155.900299 
	C278.155701,156.607193 288.655945,148.987946 292.328583,135.273361 
	C294.267090,128.034317 294.267059,128.034302 302.558655,127.899841 
	C306.639160,127.891586 310.302216,128.192795 313.926758,127.940788 
	C317.944763,127.661407 319.985840,129.457214 319.940948,133.214828 
	C319.784241,146.324280 336.352325,156.202545 346.573059,155.899963 
	C350.141571,155.184448 353.491608,155.002411 356.379974,153.753098 
	C359.304321,152.488220 361.262848,152.987000 362.705902,155.416519 
	C365.691040,160.442261 368.276306,165.710510 371.364868,170.667938 
	C373.336670,173.832855 372.104126,175.843979 369.724976,177.652115 
	C355.940674,188.127930 356.102509,208.995010 370.061707,219.623322 
	C371.106842,220.419067 371.964844,221.460587 373.325378,222.795563 
	C369.603424,229.042496 365.897034,235.278610 362.174805,241.505234 
	C359.662872,245.707260 356.722473,243.253967 353.402618,241.740906 
	C352.632568,241.361130 352.325867,241.255295 352.019165,241.149445 
	C351.858490,241.099899 351.697784,241.050339 351.291260,240.944427 
	C347.066589,233.462616 343.272095,225.929031 339.012146,218.668549 
	C337.455444,216.015274 337.031616,214.129074 338.277344,211.107208 
	C347.421509,188.925735 331.233887,165.217438 307.970154,164.028412 
	C293.684418,163.572693 284.012390,170.116104 277.082855,179.675323 
	C273.488892,175.828766 269.806152,171.887207 266.123413,167.945648 
	C259.534576,166.119171 252.945724,164.292694 246.254776,162.437912 
	C246.275223,162.399139 246.854111,160.999435 247.687759,159.772903 
	C251.689255,153.885651 250.907883,150.386963 259.889557,155.335541 
	C260.826508,155.851776 262.092346,155.771133 263.600159,155.900299 
z"/>
<path fill="#038FDD" opacity="1.000000" stroke="none" 
	d="
M265.881409,168.288116 
	C269.806152,171.887207 273.488892,175.828766 277.082855,179.675323 
	C284.012390,170.116104 293.684418,163.572693 307.552917,164.100922 
	C307.663025,169.441605 307.332367,174.716385 306.587585,180.477997 
	C298.294952,180.594666 290.868530,187.351379 289.297821,194.661301 
	C288.807068,196.945221 288.944824,200.284698 290.295380,201.827194 
	C292.302979,204.120102 295.683594,204.115112 298.757050,202.698883 
	C301.095917,201.621109 303.557922,200.810593 305.965149,199.881165 
	C309.067535,205.157135 307.666870,210.725540 307.034180,216.680298 
	C296.384491,223.549988 286.518097,220.197784 277.026154,214.432266 
	C271.105286,210.835861 264.925934,207.287445 262.931366,199.417786 
	C263.590515,197.190338 264.813568,195.362625 264.909546,193.477524 
	C265.330750,185.204269 265.425964,176.914429 265.881409,168.288116 
z"/>
<path fill="#000000" opacity="1.000000" stroke="none" 
	d="
M306.212402,199.531570 
	C303.557922,200.810593 301.095917,201.621109 298.757050,202.698883 
	C295.683594,204.115112 292.302979,204.120102 290.295380,201.827194 
	C288.944824,200.284698 288.807068,196.945221 289.297821,194.661301 
	C290.868530,187.351379 298.294952,180.594666 306.583496,180.898987 
	C317.090607,181.846451 324.961182,190.302277 323.769806,199.899170 
	C317.958282,199.658386 312.208954,199.420181 306.212402,199.531570 
z"/>
<path fill="#0387D7" opacity="1.000000" stroke="none" 
	d="
M352.185669,241.309189 
	C352.325867,241.255295 352.632568,241.361130 353.036011,241.713013 
	C352.855225,241.823318 352.595032,241.659958 352.185669,241.309189 
z"/>
<path fill="#038FDD" opacity="1.000000" stroke="none" 
	d="
M268.108368,229.954819 
	C283.796722,238.482788 293.842529,251.557251 297.898468,268.789490 
	C303.674744,293.330994 296.221039,313.909363 277.748505,330.720123 
	C276.674164,331.697845 275.368225,332.421112 273.623352,333.091858 
	C272.717316,329.837708 272.355286,326.754822 271.999573,323.671204 
	C271.626160,320.434204 271.258881,317.196472 271.032349,313.642456 
	C272.626343,311.187927 274.103210,309.067413 275.523010,306.909302 
	C282.928955,295.652191 284.758209,283.537872 280.817596,270.656525 
	C278.233215,262.208618 273.082123,255.332855 266.970947,248.642471 
	C267.355316,242.096222 267.731842,236.025528 268.108368,229.954819 
z"/>
<path fill="#04A0E9" opacity="1.000000" stroke="none" 
	d="
M206.961487,336.125854 
	C184.691360,323.166168 174.278015,299.804016 177.205582,275.574921 
	C179.244827,258.697754 187.340714,244.511581 201.809799,234.436218 
	C202.539322,241.833450 202.789780,248.973846 202.898651,256.432068 
	C188.944077,276.866180 191.798401,298.518799 207.033112,315.360840 
	C207.003113,322.599640 206.982300,329.362732 206.961487,336.125854 
z"/>
<path fill="#0497E2" opacity="1.000000" stroke="none" 
	d="
M267.932190,229.638824 
	C267.731842,236.025528 267.355316,242.096222 266.616394,248.582001 
	C264.796722,247.988480 263.361298,246.946396 261.878540,245.976761 
	C253.086426,240.227142 243.292633,238.502060 232.994690,238.373627 
	C232.995560,232.668060 232.995300,227.419113 232.995041,222.170181 
	C245.308792,221.022385 256.839478,223.680145 267.932190,229.638824 
z"/>
<path fill="#049BE5" opacity="1.000000" stroke="none" 
	d="
M207.128448,336.439819 
	C206.982300,329.362732 207.003113,322.599640 207.345245,315.499634 
	C216.541504,324.225586 227.691681,327.632965 239.997284,328.623596 
	C240.330597,334.328339 240.663406,339.579132 240.996201,344.829956 
	C228.915314,345.673553 217.896927,342.083435 207.128448,336.439819 
z"/>
<path fill="#0497E2" opacity="1.000000" stroke="none" 
	d="
M241.414978,344.902039 
	C240.663406,339.579132 240.330597,334.328339 240.407730,328.550232 
	C252.395432,326.657776 262.380493,321.887115 270.888916,313.959076 
	C271.258881,317.196472 271.626160,320.434204 271.999573,323.671204 
	C272.355286,326.754822 272.717316,329.837708 273.362061,333.311707 
	C264.178040,340.663605 253.277573,343.585632 241.414978,344.902039 
z"/>
<path fill="#049DE7" opacity="1.000000" stroke="none" 
	d="
M232.582642,222.103104 
	C232.995300,227.419113 232.995560,232.668060 232.640167,238.552673 
	C230.440048,239.674667 228.612564,240.241730 226.748276,240.633804 
	C216.829590,242.719772 209.893036,249.347656 203.040237,256.114227 
	C202.789780,248.973846 202.539322,241.833450 202.126144,234.302856 
	C210.982727,227.284119 221.108749,223.470428 232.582642,222.103104 
z"/>
<path fill="#000000" opacity="1.000000" stroke="none" 
	d="
M202.898651,256.432068 
	C209.893036,249.347656 216.829590,242.719772 226.748276,240.633804 
	C228.612564,240.241730 230.440048,239.674667 232.639053,239.009308 
	C243.292633,238.502060 253.086426,240.227142 261.878540,245.976761 
	C263.361298,246.946396 264.796722,247.988480 266.608582,249.057556 
	C273.082123,255.332855 278.233215,262.208618 280.817596,270.656525 
	C284.758209,283.537872 282.928955,295.652191 275.523010,306.909302 
	C274.103210,309.067413 272.626343,311.187927 271.032349,313.642456 
	C262.380493,321.887115 252.395432,326.657776 240.407227,328.096313 
	C227.691681,327.632965 216.541504,324.225586 207.354431,315.023956 
	C191.798401,298.518799 188.944077,276.866180 202.898651,256.432068 
z"/>
</svg>